<?xml version="1.0" encoding="UTF-8" standalone="no"?>
<!--?xml version="1.0" encoding="UTF-8" standalone="no"?-->

<!-- Created with Inkscape (http://www.inkscape.org/) -->

<svg
   width="105.91512mm"
   height="112.39949mm"
   viewBox="0 0 375.28973 398.26586"
   id="svg2"
   version="1.1"
   style="enable-background:new"
   xmlns="http://www.w3.org/2000/svg"
   xmlns:svg="http://www.w3.org/2000/svg"
   xmlns:rdf="http://www.w3.org/1999/02/22-rdf-syntax-ns#"
   xmlns:cc="http://creativecommons.org/ns#"
   xmlns:dc="http://purl.org/dc/elements/1.1/">
  <defs
     id="defs4" />
  <metadata
     id="metadata7">
    <rdf:rdf>
      <cc:work
         rdf:about="">
        <dc:format>image/svg+xml</dc:format>
        <dc:type
           rdf:resource="http://purl.org/dc/dcmitype/StillImage" />
        <dc:title />
      </cc:work>
    </rdf:rdf>
  </metadata>
  <g
     id="g2"
     style="display:inline"
     transform="translate(-290.66928,-259.6026)">
    <ellipse
       style="display:inline;fill:#c5cacf;fill-opacity:1;stroke:none;stroke-width:5.12362;stroke-linecap:round;stroke-miterlimit:4;stroke-dasharray:none;stroke-opacity:1"
       id="ellipse1"
       cx="436.87097"
       cy="628.78912"
       rx="143.92493"
       ry="29.079325" />
  </g>
  <g
     id="layer5"
     style="display:inline;opacity:1"
     transform="translate(-279.63393,-263.42996)">
    <g
       style="display:inline;opacity:1"
       transform="matrix(-0.11157379,-0.43329652,0.6130005,-0.08395631,172.78373,822.39513)"
       id="g4732">
      <path
         style="color:#000000;clip-rule:nonzero;display:inline;overflow:visible;opacity:1;isolation:auto;mix-blend-mode:normal;color-interpolation:sRGB;color-interpolation-filters:linearRGB;solid-color:#000000;solid-opacity:1;fill:#e1d6b9;fill-opacity:1;fill-rule:nonzero;stroke:none;stroke-width:10;stroke-linecap:butt;stroke-linejoin:miter;stroke-miterlimit:4;stroke-dasharray:none;stroke-dashoffset:0;stroke-opacity:1;color-rendering:auto;image-rendering:auto;shape-rendering:auto;text-rendering:auto;enable-background:accumulate"
         d="m 423.50332,581.83521 c -0.004,4.40048 -1.19837,7.58856 -3.37524,9.82844 -2.17687,2.23987 -5.33154,3.55156 -9.14619,4.44292 -3.81465,0.89135 -8.28246,1.39523 -13.05675,1.83828 -4.77428,0.44304 -9.85163,0.79076 -14.95001,1.09928 -5.09838,0.30851 -9.94541,0.34741 -14.40217,0.0862 -4.45676,-0.26122 -8.52354,-0.79908 -11.99271,-1.71189 -3.46915,-0.91282 -6.33736,-2.21356 -8.3562,-4.09288 -2.01885,-1.87935 -3.18709,-4.34475 -3.25466,-7.51083 -0.0676,-3.16607 0.9983,-5.4859 2.92534,-7.0838 1.92703,-1.5979 4.71248,-2.46394 8.09977,-2.84688 3.38729,-0.38293 7.37282,-0.28336 11.77044,-0.16051 4.39762,0.12284 9.21051,0.23456 14.33166,-0.12202 5.12115,-0.35659 10.27171,-1.47349 15.16022,-2.54099 4.88852,-1.06749 9.50395,-2.05149 13.43823,-2.27114 3.9343,-0.21967 7.17754,0.32322 9.39823,2.04598 2.22069,1.72276 3.41425,4.59936 3.41004,8.99986 z"
         id="path4728" />
      <path
         style="color:#000000;clip-rule:nonzero;display:inline;overflow:visible;opacity:1;isolation:auto;mix-blend-mode:normal;color-interpolation:sRGB;color-interpolation-filters:linearRGB;solid-color:#000000;solid-opacity:1;fill:#394655;fill-opacity:1;fill-rule:nonzero;stroke:none;stroke-width:10;stroke-linecap:butt;stroke-linejoin:miter;stroke-miterlimit:4;stroke-dasharray:none;stroke-dashoffset:0;stroke-opacity:1;color-rendering:auto;image-rendering:auto;shape-rendering:auto;text-rendering:auto;enable-background:accumulate"
         d="m 411.91406,568.54883 c -3.75011,-0.0271 -8.08701,0.53975 -12.76172,1.28711 -5.34251,0.85413 -11.10706,1.92059 -17.00976,2.32617 -5.9027,0.40562 -11.41103,0.38326 -16.44727,0.41406 -5.03624,0.0309 -9.6045,0.1607 -13.50781,0.85938 -3.9033,0.69867 -7.13503,1.96743 -9.4082,3.96875 -2.27316,2.00131 -3.58535,4.71676 -3.65235,8.17578 -0.067,3.45901 1.21821,6.3073 3.54297,8.58008 2.32476,2.27278 5.68789,3.9795 9.76172,5.25 4.07385,1.27051 8.85237,2.11894 14.05664,2.59765 5.20427,0.47871 10.83381,0.56134 16.70313,0.22266 5.86931,-0.33868 11.47146,-0.78653 16.60547,-1.34961 5.13399,-0.56309 9.79334,-1.22365 13.70703,-2.34375 1.48913,-0.4262 2.86677,-0.9287 4.12695,-1.51953 2.54507,-1.19325 2.05015,-6.17249 -0.0996,-4.54102 -1.99172,1.51153 -4.14364,1.68162 -7.15735,2.35061 -3.67269,0.81527 -8.18136,0.99111 -12.55008,1.3428 -4.3687,0.35167 -8.7789,1.78431 -13.31332,2.07736 -4.53444,0.29304 -8.86787,0.32801 -12.93181,0.0702 -4.06396,-0.25785 -7.85651,-0.78075 -11.12475,-1.64296 -3.26823,-0.86221 -5.99695,-2.08037 -7.8846,-3.81399 -1.88765,-1.73365 -2.92537,-3.9871 -2.97865,-6.80086 -0.0533,-2.81374 0.90176,-4.8192 2.66881,-6.10562 1.76704,-1.28641 5.61732,-0.58475 8.69196,-0.71399 3.07463,-0.12925 6.90624,-0.54484 10.78772,-0.41733 3.88147,0.12754 6.54592,-0.48119 11.04844,-1.2139 4.50252,-0.73264 9.15212,-2.3434 13.88736,-3.72101 4.73523,-1.37761 9.22461,-2.34259 13.00861,-2.55385 0.473,-0.0264 0.93707,-0.0422 1.38868,-0.0449 1.16046,-0.007 2.25007,0.0442 3.25,0.23633 1.15313,0.22156 2.31543,-2.86146 -0.83789,-2.92773 -0.51177,-0.0108 -1.03459,-0.045 -1.57032,-0.0488 z"
         id="path4730" />
    </g>
    <path
       style="color:#000000;clip-rule:nonzero;display:inline;overflow:visible;opacity:1;isolation:auto;mix-blend-mode:normal;color-interpolation:sRGB;color-interpolation-filters:linearRGB;solid-color:#000000;solid-opacity:1;fill:#394655;fill-opacity:1;fill-rule:nonzero;stroke:none;stroke-width:1.42763;stroke-linecap:butt;stroke-linejoin:miter;stroke-miterlimit:4;stroke-dasharray:none;stroke-dashoffset:0;stroke-opacity:1;color-rendering:auto;image-rendering:auto;shape-rendering:auto;text-rendering:auto;enable-background:accumulate"
       d="m 538.56761,467.58444 c 0.85241,40.20252 -4.13716,84.31493 -31.9041,115.14389 -28.42051,31.5546 -73.85666,39.56487 -114.85846,36.24061 -25.04468,-2.03053 -52.34449,-7.15472 -72.46159,-23.28217 -16.79895,-13.46736 -23.26208,-36.04827 -19.90714,-56.31511 3.59105,-21.69324 8.17365,-44.48036 0.18936,-67.48476 -13.29007,-38.29151 -25.68075,-80.50321 -17.21987,-122.66804 3.83038,-19.08876 19.09606,-33.68078 34.75797,-43.28421 20.11923,-12.33653 44.32884,-10.75056 66.92622,-12.44816 40.19313,-3.01945 84.86815,-1.97663 120.03478,20.97027 25.17792,16.42907 38.24599,45.35129 37.42214,74.78836 -0.72876,26.04069 -3.57148,52.34299 -3.55656,78.13498 0.002,3.28605 0.41982,-7.22109 0.57725,0.20434 z"
       id="path4188-0" />
    <path
       style="color:#000000;clip-rule:nonzero;display:inline;overflow:visible;opacity:1;isolation:auto;mix-blend-mode:normal;color-interpolation:sRGB;color-interpolation-filters:linearRGB;solid-color:#000000;solid-opacity:1;fill:#5dc9e2;fill-opacity:1;fill-rule:nonzero;stroke:none;stroke-width:1.42763;stroke-linecap:butt;stroke-linejoin:miter;stroke-miterlimit:4;stroke-dasharray:none;stroke-dashoffset:0;stroke-opacity:1;color-rendering:auto;image-rendering:auto;shape-rendering:auto;text-rendering:auto;enable-background:accumulate"
       d="m 531.84536,508.72871 c -3.42956,40.32834 -26.72788,80.78493 -65.21279,95.27046 -38.75955,14.58891 -83.57034,13.66119 -123.70116,-0.7949 -15.06316,-5.42611 -27.59718,-15.86591 -34.57776,-30.01743 -11.33527,-22.97966 -1.13659,-46.80345 -0.56403,-70.5005 0.64562,-26.72159 -13.59611,-51.88604 -18.3866,-78.876 -3.47602,-19.58416 -12.68848,-54.1461 0.31386,-84.63794 8.97941,-21.05765 32.89673,-36.24302 56.21244,-38.53712 46.1754,-4.54332 94.97641,-10.68608 139.05342,7.31525 27.1178,11.07509 45.18078,37.38172 48.69741,65.78635 4.04907,32.70523 -0.51525,65.53938 -10e-4,98.22664 0.16962,10.78618 -1.4686,40.98596 -1.68611,35.26085 -0.23377,-6.15329 0.0152,-0.41286 -0.14753,1.50434 z"
       id="ellipse4190-9" />
    <g
       style="display:inline;opacity:1"
       transform="matrix(0.3373368,-0.01205579,-0.00288735,0.30636908,548.72584,168.68437)"
       id="g4831">
      <path
         id="path4823"
         d="m -626.57295,401.69566 c 2.24713,11.35067 0.36741,22.38948 -3.843,32.03835 -4.21053,9.64886 -10.54997,17.90531 -17.7192,24.34399 -7.1694,6.43883 -15.25457,11.1106 -24.57171,13.61082 -9.31727,2.5002 -20.94956,4.47176 -31.64526,1.82793 -10.69571,-2.64383 -18.09209,-9.81214 -24.14818,-17.25062 -6.05597,-7.43843 -12.44269,-16.56671 -23.09665,-25.35944 -10.65372,-8.79255 -20.95218,-17.78817 -25.30072,-26.87318 -4.34843,-9.08528 -7.1154,-18.36084 -7.98,-27.52156 -0.86459,-9.1606 0.24716,-17.36404 2.9617,-24.58398 2.71467,-7.22004 7.03243,-13.45488 12.66059,-18.5369 5.6283,-5.08191 12.56665,-9.01064 20.59229,-11.48936 8.02576,-2.47858 17.13537,-3.50537 27.20916,-2.66707 10.0738,0.83832 20.1809,3.47234 29.95223,7.6529 9.77122,4.18068 19.21426,9.9086 27.71179,16.89733 8.49741,6.98886 16.03465,15.24007 21.79567,24.41557 5.7609,9.17565 13.1742,22.14471 15.42129,33.49522 z"
         style="color:#000000;clip-rule:nonzero;display:inline;overflow:visible;opacity:1;isolation:auto;mix-blend-mode:normal;color-interpolation:sRGB;color-interpolation-filters:linearRGB;solid-color:#000000;solid-opacity:1;fill:#5dc9e2;fill-opacity:1;fill-rule:nonzero;stroke:none;stroke-width:10;stroke-linecap:butt;stroke-linejoin:miter;stroke-miterlimit:4;stroke-dasharray:none;stroke-dashoffset:0;stroke-opacity:1;color-rendering:auto;image-rendering:auto;shape-rendering:auto;text-rendering:auto;enable-background:accumulate" />
      <path
         transform="matrix(13.851095,0,0,13.851095,10133.213,-6001.611)"
         id="path4825"
         d="m -784.27135,455.90422 c -0.56339,0.0147 -1.08437,0.10666 -1.55902,0.26191 -0.63289,0.20699 -1.18231,0.52669 -1.63059,0.93484 -0.44828,0.40815 -0.79558,0.90361 -1.01756,1.4752 -0.22199,0.5716 -0.31844,1.21792 -0.26185,1.93717 0.0566,0.71926 0.26134,1.4471 0.59196,2.157 0.33063,0.7099 0.99621,1.41858 1.84494,2.08284 0.84872,0.66425 1.36325,1.36931 1.83382,1.93901 0.46898,0.56774 0.28342,0.42474 1.17339,0.50386 0.10256,0.009 0.12294,-0.31321 0.034,-0.33899 -0.78143,-0.21746 -0.40712,-0.29007 -0.86957,-0.72913 -0.42768,-0.5236 -0.87838,-1.16625 -1.63058,-1.78505 -0.75217,-0.61879 -1.47924,-1.25213 -1.78697,-1.89162 -0.30772,-0.63951 -0.50455,-1.29287 -0.56648,-1.9378 -0.062,-0.64492 0.0165,-1.22191 0.20772,-1.73042 0.1912,-0.50852 0.49539,-0.94884 0.89287,-1.30706 0.3975,-0.35822 0.88707,-0.63484 1.45426,-0.80994 0.2836,-0.0875 0.58767,-0.1494 0.90851,-0.1822 0.32084,-0.0328 0.65966,-0.0369 1.01552,-0.008 0.71174,0.0585 1.42446,0.24383 2.11396,0.53794 0.6895,0.29412 1.35628,0.69807 1.95502,1.19025 0.59873,0.49218 1.12894,1.07271 1.53474,1.71893 0.4058,0.64623 0.9285,1.5589 1.08808,2.35795 0.13104,0.65619 0.30858,0.6753 0.0657,1.35463 -0.0453,0.1265 0.55904,0.14077 0.6892,-0.16485 0.24262,-0.57052 -0.0138,-0.58166 -0.15575,-1.20982 -0.19193,-0.8494 -0.69467,-1.87018 -1.14447,-2.58629 -0.44981,-0.71609 -1.03943,-1.35821 -1.70275,-1.89855 -0.66333,-0.54034 -1.3987,-0.97968 -2.16052,-1.29649 -0.76184,-0.31679 -1.55154,-0.51173 -2.33984,-0.56369 -0.19709,-0.013 -0.38986,-0.0163 -0.57767,-0.0116 z"
         style="color:#000000;clip-rule:nonzero;display:inline;overflow:visible;opacity:1;isolation:auto;mix-blend-mode:normal;color-interpolation:sRGB;color-interpolation-filters:linearRGB;solid-color:#000000;solid-opacity:1;fill:#394655;fill-opacity:1;fill-rule:nonzero;stroke:none;stroke-width:10;stroke-linecap:butt;stroke-linejoin:miter;stroke-miterlimit:4;stroke-dasharray:none;stroke-dashoffset:0;stroke-opacity:1;color-rendering:auto;image-rendering:auto;shape-rendering:auto;text-rendering:auto;enable-background:accumulate" />
      <path
         style="color:#000000;font-style:normal;font-variant:normal;font-weight:normal;font-stretch:normal;font-size:medium;line-height:normal;font-family:sans-serif;font-variant-ligatures:normal;font-variant-position:normal;font-variant-caps:normal;font-variant-numeric:normal;font-variant-alternates:normal;font-feature-settings:normal;text-indent:0;text-align:start;text-decoration:none;text-decoration-line:none;text-decoration-style:solid;text-decoration-color:#000000;letter-spacing:normal;word-spacing:normal;text-transform:none;writing-mode:lr-tb;direction:ltr;text-orientation:mixed;dominant-baseline:auto;baseline-shift:baseline;text-anchor:start;white-space:normal;shape-padding:0;clip-rule:nonzero;display:inline;overflow:visible;opacity:1;isolation:auto;mix-blend-mode:normal;color-interpolation:sRGB;color-interpolation-filters:linearRGB;solid-color:#000000;solid-opacity:1;vector-effect:none;fill:#394655;fill-opacity:1;fill-rule:evenodd;stroke:none;stroke-width:4.24172;stroke-linecap:round;stroke-linejoin:miter;stroke-miterlimit:4;stroke-dasharray:none;stroke-dashoffset:0;stroke-opacity:1;color-rendering:auto;image-rendering:auto;shape-rendering:auto;text-rendering:auto;enable-background:accumulate"
         d="m -727.64597,369.77886 c -4.02569,1.29726 -7.73307,4.27024 -10.16268,9.89327 -1.75573,4.06341 -2.12127,9.15774 -1.25277,15.49426 0.57719,4.21104 1.69939,8.9707 3.32078,14.34099 0.57631,1.90882 4.3899,6.05184 6.87647,8.07661 3.98597,3.24575 8.98673,6.97744 9.56423,6.21824 0.40302,-0.52983 -6.21725,-3.84658 -9.60979,-8.10807 -2.8295,-3.55424 -4.02474,-7.34689 -4.91389,-13.25298 -1.32951,-8.83107 -0.46606,-14.34801 1.33698,-18.52088 2.63455,-6.09733 6.83363,-8.54343 11.42621,-9.07223 4.59261,-0.52882 9.46769,0.99064 12.97398,2.58703 7.47874,3.40504 17.38996,9.04908 28.01815,21.61859 1.97007,2.3299 3.38271,1.18304 1.38821,-1.08811 -11.15076,-12.6975 -20.92003,-21.47423 -29.7128,-25.54361 -4.05665,-1.87747 -9.64982,-3.79459 -15.1569,-3.41448 -1.37675,0.095 -2.75429,0.33893 -4.09618,0.77135 z"
         id="path4870" />
    </g>
    <g
       id="g4880"
       transform="matrix(-0.33523714,0.0394654,0.04951742,0.30235472,220.52302,197.68003)"
       style="display:inline;opacity:1">
      <path
         style="color:#000000;clip-rule:nonzero;display:inline;overflow:visible;opacity:1;isolation:auto;mix-blend-mode:normal;color-interpolation:sRGB;color-interpolation-filters:linearRGB;solid-color:#000000;solid-opacity:1;fill:#5dc9e2;fill-opacity:1;fill-rule:nonzero;stroke:none;stroke-width:10;stroke-linecap:butt;stroke-linejoin:miter;stroke-miterlimit:4;stroke-dasharray:none;stroke-dashoffset:0;stroke-opacity:1;color-rendering:auto;image-rendering:auto;shape-rendering:auto;text-rendering:auto;enable-background:accumulate"
         d="m -626.57295,401.69566 c 2.24713,11.35067 0.36741,22.38948 -3.843,32.03835 -4.21053,9.64886 -10.54997,17.90531 -17.7192,24.34399 -7.1694,6.43883 -15.25457,11.1106 -24.57171,13.61082 -9.31727,2.5002 -20.94956,4.47176 -31.64526,1.82793 -10.69571,-2.64383 -18.09209,-9.81214 -24.14818,-17.25062 -6.05597,-7.43843 -12.44269,-16.56671 -23.09665,-25.35944 -10.65372,-8.79255 -20.95218,-17.78817 -25.30072,-26.87318 -4.34843,-9.08528 -7.1154,-18.36084 -7.98,-27.52156 -0.86459,-9.1606 0.24716,-17.36404 2.9617,-24.58398 2.71467,-7.22004 7.03243,-13.45488 12.66059,-18.5369 5.6283,-5.08191 12.56665,-9.01064 20.59229,-11.48936 8.02576,-2.47858 17.13537,-3.50537 27.20916,-2.66707 10.0738,0.83832 20.1809,3.47234 29.95223,7.6529 9.77122,4.18068 19.21426,9.9086 27.71179,16.89733 8.49741,6.98886 16.03465,15.24007 21.79567,24.41557 5.7609,9.17565 13.1742,22.14471 15.42129,33.49522 z"
         id="path4874" />
      <path
         style="color:#000000;clip-rule:nonzero;display:inline;overflow:visible;opacity:1;isolation:auto;mix-blend-mode:normal;color-interpolation:sRGB;color-interpolation-filters:linearRGB;solid-color:#000000;solid-opacity:1;fill:#394655;fill-opacity:1;fill-rule:nonzero;stroke:none;stroke-width:10;stroke-linecap:butt;stroke-linejoin:miter;stroke-miterlimit:4;stroke-dasharray:none;stroke-dashoffset:0;stroke-opacity:1;color-rendering:auto;image-rendering:auto;shape-rendering:auto;text-rendering:auto;enable-background:accumulate"
         d="m -784.27135,455.90422 c -0.56339,0.0147 -1.08437,0.10666 -1.55902,0.26191 -0.63289,0.20699 -1.18231,0.52669 -1.63059,0.93484 -0.44828,0.40815 -0.79558,0.90361 -1.01756,1.4752 -0.22199,0.5716 -0.31844,1.21792 -0.26185,1.93717 0.0566,0.71926 0.26134,1.4471 0.59196,2.157 0.33063,0.7099 0.99621,1.41858 1.84494,2.08284 0.84872,0.66425 1.36325,1.36931 1.83382,1.93901 0.46898,0.56774 0.28342,0.42474 1.17339,0.50386 0.10256,0.009 0.12294,-0.31321 0.034,-0.33899 -0.78143,-0.21746 -0.40712,-0.29007 -0.86957,-0.72913 -0.42768,-0.5236 -0.87838,-1.16625 -1.63058,-1.78505 -0.75217,-0.61879 -1.47924,-1.25213 -1.78697,-1.89162 -0.30772,-0.63951 -0.50455,-1.29287 -0.56648,-1.9378 -0.062,-0.64492 0.0165,-1.22191 0.20772,-1.73042 0.1912,-0.50852 0.49539,-0.94884 0.89287,-1.30706 0.3975,-0.35822 0.88707,-0.63484 1.45426,-0.80994 0.2836,-0.0875 0.58767,-0.1494 0.90851,-0.1822 0.32084,-0.0328 0.65966,-0.0369 1.01552,-0.008 0.71174,0.0585 1.42446,0.24383 2.11396,0.53794 0.6895,0.29412 1.35628,0.69807 1.95502,1.19025 0.59873,0.49218 1.12894,1.07271 1.53474,1.71893 0.4058,0.64623 0.9285,1.5589 1.08808,2.35795 0.13104,0.65619 0.30858,0.6753 0.0657,1.35463 -0.0453,0.1265 0.55904,0.14077 0.6892,-0.16485 0.24262,-0.57052 -0.0138,-0.58166 -0.15575,-1.20982 -0.19193,-0.8494 -0.69467,-1.87018 -1.14447,-2.58629 -0.44981,-0.71609 -1.03943,-1.35821 -1.70275,-1.89855 -0.66333,-0.54034 -1.3987,-0.97968 -2.16052,-1.29649 -0.76184,-0.31679 -1.55154,-0.51173 -2.33984,-0.56369 -0.19709,-0.013 -0.38986,-0.0163 -0.57767,-0.0116 z"
         id="path4876"
         transform="matrix(13.851095,0,0,13.851095,10133.213,-6001.611)" />
      <path
         id="path4878"
         d="m -727.64597,369.77886 c -4.02569,1.29726 -7.73307,4.27024 -10.16268,9.89327 -1.75573,4.06341 -2.12127,9.15774 -1.25277,15.49426 0.57719,4.21104 1.69939,8.9707 3.32078,14.34099 0.57631,1.90882 4.3899,6.05184 6.87647,8.07661 3.98597,3.24575 8.98673,6.97744 9.56423,6.21824 0.40302,-0.52983 -6.21725,-3.84658 -9.60979,-8.10807 -2.8295,-3.55424 -4.02474,-7.34689 -4.91389,-13.25298 -1.32951,-8.83107 -0.46606,-14.34801 1.33698,-18.52088 2.63455,-6.09733 6.83363,-8.54343 11.42621,-9.07223 4.59261,-0.52882 9.46769,0.99064 12.97398,2.58703 7.47874,3.40504 17.38996,9.04908 28.01815,21.61859 1.97007,2.3299 3.38271,1.18304 1.38821,-1.08811 -11.15076,-12.6975 -20.92003,-21.47423 -29.7128,-25.54361 -4.05665,-1.87747 -9.64982,-3.79459 -15.1569,-3.41448 -1.37675,0.095 -2.75429,0.33893 -4.09618,0.77135 z"
         style="color:#000000;font-style:normal;font-variant:normal;font-weight:normal;font-stretch:normal;font-size:medium;line-height:normal;font-family:sans-serif;font-variant-ligatures:normal;font-variant-position:normal;font-variant-caps:normal;font-variant-numeric:normal;font-variant-alternates:normal;font-feature-settings:normal;text-indent:0;text-align:start;text-decoration:none;text-decoration-line:none;text-decoration-style:solid;text-decoration-color:#000000;letter-spacing:normal;word-spacing:normal;text-transform:none;writing-mode:lr-tb;direction:ltr;text-orientation:mixed;dominant-baseline:auto;baseline-shift:baseline;text-anchor:start;white-space:normal;shape-padding:0;clip-rule:nonzero;display:inline;overflow:visible;opacity:1;isolation:auto;mix-blend-mode:normal;color-interpolation:sRGB;color-interpolation-filters:linearRGB;solid-color:#000000;solid-opacity:1;vector-effect:none;fill:#394655;fill-opacity:1;fill-rule:evenodd;stroke:none;stroke-width:4.24172;stroke-linecap:round;stroke-linejoin:miter;stroke-miterlimit:4;stroke-dasharray:none;stroke-dashoffset:0;stroke-opacity:1;color-rendering:auto;image-rendering:auto;shape-rendering:auto;text-rendering:auto;enable-background:accumulate" />
    </g>
  </g>
  <g
     id="layer6"
     style="display:inline"
     transform="translate(-201.33742,-57.169819)">
    <g
       id="layer8-3"
       transform="matrix(-0.04713568,-0.17591275,0.17591275,-0.04713568,283.4443,465.07854)"
       style="display:inline;opacity:1;enable-background:new">
      <path
         style="display:inline;opacity:1;fill:#5a3a05;fill-opacity:1;stroke:none;stroke-opacity:1"
         d="M 575,318.5261 V 695 a 5,5 135 0 1 -5,5 l -85,0 a 5,5 135 0 0 -5,5 v 25 a 5,5 45 0 0 5,5 l 35,0 a 5,5 45 0 1 5,5 v 20 a 5,5 135 0 1 -5,5 h -35 a 5,5 135 0 0 -5,5 v 25 a 5,5 45 0 0 5,5 h 85 a 5,5 45 0 1 5,5 v 40 c 0,0 0,10 25,10 25,0 25,-10 25,-10 V 318.5261 Z"
         id="path101" />
      <path
         id="path103"
         style="display:inline;opacity:1;fill:#5a3a05;fill-opacity:1;stroke-width:1.09545"
         d="m 600,80 c -88.36556,0 -160,53.72583 -160,120 0,66.27417 71.63444,120 160,120 88.36556,0 160,-53.72583 160,-120 C 760,133.72583 688.36556,80 600,80 Z m -55,50 c 18.96333,-4.57685 55,20 55,20 0,0 36.03667,-24.57685 55,-20 30.95286,7.47056 65.00047,32.73559 65,70 4.7e-4,37.26441 -34.04714,62.52944 -65,70 -18.96333,4.57685 -55,-20 -55,-20 0,0 -36.03667,24.57685 -55,20 -30.95286,-7.47056 -65.00047,-32.73559 -65,-70 -4.7e-4,-37.26441 34.04714,-62.52944 65,-70 z" />
      <g
         id="g11"
         style="display:inline;opacity:1;enable-background:new"
         transform="translate(-4.175296e-6)">
        <g
           id="g10"
           style="display:inline;opacity:1;enable-background:new"
           transform="translate(-4.9292403e-6,310.00002)">
          <rect
             style="display:inline;opacity:1;fill:#412d0b;fill-opacity:1;stroke:none;stroke-width:1.1547;stroke-opacity:1;enable-background:new"
             id="rect9"
             width="70"
             height="20"
             x="565"
             y="345"
             rx="5"
             ry="5"
             transform="translate(-4.175296e-6)" />
          <path
             style="display:inline;opacity:1;fill:#5a3a05;fill-opacity:1;stroke:none;stroke-width:1.1547;stroke-opacity:1"
             id="path9"
             width="66.5532"
             height="15.860174"
             x="568.44678"
             y="349.13983"
             rx="0"
             ry="0"
             d="m 571.67328,349.13983 h 60.10019 a 3.226505,3.226505 45 0 1 3.22651,3.22651 v 9.40716 a 3.226505,3.226505 135 0 1 -3.22651,3.22651 h -60.10019 a 3.226505,3.226505 45 0 1 -3.2265,-3.22651 v -9.40716 a 3.226505,3.226505 135 0 1 3.2265,-3.22651 z" />
          <rect
             style="display:inline;opacity:0.25;fill:#ffffff;fill-opacity:1;stroke:none;stroke-width:0.971222;stroke-opacity:1;enable-background:new"
             id="rect10"
             width="53.118134"
             height="4.2909579"
             x="577.07074"
             y="356.98581"
             rx="1.5568469"
             ry="1.4574801" />
        </g>
        <g
           id="g8"
           style="display:inline;opacity:1;enable-background:new"
           transform="translate(-1.5909195e-5,25.000006)">
          <rect
             style="display:inline;opacity:1;fill:#412d0b;fill-opacity:1;stroke:none;stroke-width:1.1547;stroke-opacity:1;enable-background:new"
             id="rect7"
             width="70"
             height="20"
             x="565"
             y="345"
             rx="5"
             ry="5"
             transform="translate(-4.175296e-6)" />
          <path
             style="display:inline;opacity:1;fill:#5a3a05;fill-opacity:1;stroke:none;stroke-width:1.1547;stroke-opacity:1"
             id="path7"
             width="66.5532"
             height="15.860174"
             x="568.44678"
             y="349.13983"
             rx="0"
             ry="0"
             d="m 571.67328,349.13983 h 60.10019 a 3.226505,3.226505 45 0 1 3.22651,3.22651 v 9.40716 a 3.226505,3.226505 135 0 1 -3.22651,3.22651 h -60.10019 a 3.226505,3.226505 45 0 1 -3.2265,-3.22651 v -9.40716 a 3.226505,3.226505 135 0 1 3.2265,-3.22651 z" />
          <rect
             style="display:inline;opacity:0.25;fill:#ffffff;fill-opacity:1;stroke:none;stroke-width:0.971222;stroke-opacity:1;enable-background:new"
             id="rect8"
             width="53.118134"
             height="4.2909579"
             x="577.07074"
             y="356.98581"
             rx="1.5568469"
             ry="1.4574801" />
        </g>
        <g
           id="g7"
           style="display:inline">
          <rect
             style="display:inline;opacity:1;fill:#412d0b;fill-opacity:1;stroke:none;stroke-width:1.1547;stroke-opacity:1;enable-background:new"
             id="rect3"
             width="70"
             height="20"
             x="565"
             y="345"
             rx="5"
             ry="5"
             transform="translate(-4.175296e-6)" />
          <path
             style="display:inline;opacity:1;fill:#5a3a05;fill-opacity:1;stroke:none;stroke-width:1.1547;stroke-opacity:1"
             id="rect103"
             width="66.5532"
             height="15.860174"
             x="568.44678"
             y="349.13983"
             rx="0"
             ry="0"
             d="m 571.67328,349.13983 h 60.10019 a 3.226505,3.226505 45 0 1 3.22651,3.22651 v 9.40716 a 3.226505,3.226505 135 0 1 -3.22651,3.22651 h -60.10019 a 3.226505,3.226505 45 0 1 -3.2265,-3.22651 v -9.40716 a 3.226505,3.226505 135 0 1 3.2265,-3.22651 z" />
          <rect
             style="display:inline;opacity:0.25;fill:#ffffff;fill-opacity:1;stroke:none;stroke-width:0.971222;stroke-opacity:1;enable-background:new"
             id="rect4"
             width="53.118134"
             height="4.2909579"
             x="577.07074"
             y="356.98581"
             rx="1.5568469"
             ry="1.4574801" />
        </g>
      </g>
      <g
         id="g31"
         style="display:inline;opacity:1;enable-background:new"
         transform="translate(-4.175296e-6)">
        <path
           d="m 479.99872,709.91126 a 5,5 0 0 1 4.99925,-4.90579 l 84.99871,7.1e-4 a 5,5 0 0 0 5.00325,-4.99839 l -10e-4,-5.00697 a 5,5 0 0 1 -5.00324,4.99839 l -84.99871,-7.1e-4 a 5,5 0 0 0 -4.99353,5.001 z"
           style="display:inline;opacity:1;fill:#412d0b;fill-opacity:1;enable-background:new"
           id="path30" />
        <path
           d="m 480.00371,774.99932 a 5,5 0 0 1 4.99353,-5.001 l 35.00477,10e-4 a 5,5 0 0 0 5.00324,-4.99839 l -0.004,-4.99726 a 5,5 0 0 1 -5.00324,4.99839 l -34.99505,10e-4 a 5,5 0 0 0 -5.00324,4.99839 z"
           style="display:inline;opacity:1;fill:#412d0b;fill-opacity:1;enable-background:new"
           id="path28" />
      </g>
      <g
         id="g33"
         style="display:inline">
        <path
           style="display:inline;opacity:0.25;fill:#ffffff;fill-opacity:1;stroke-width:5.14775"
           d="m 739.80387,230.00803 c 7.17615,4.98401 -8.99,24.00745 -18.47109,33.53899 -9.33029,9.37994 -27.65661,22.81711 -32.23795,16.54721 -3.68956,-5.04943 12.16096,-14.92567 21.55654,-24.08678 9.68876,-9.44697 21.09444,-31.59593 29.1525,-25.99942 z"
           id="path1" />
        <path
           style="display:inline;opacity:0.25;fill:#ffffff;fill-opacity:1;stroke-width:5.14775"
           d="m 616.96318,843.74289 c 0.58455,3.81833 -11.62385,5.89002 -17.88869,5.77481 -6.45375,-0.11868 -17.51714,-1.98725 -16.84808,-5.21602 0.57637,-2.78143 9.87647,-0.03 16.83646,-0.20458 5.13293,-0.12872 17.32367,-4.12087 17.90031,-0.35421 z"
           id="path13" />
        <ellipse
           style="display:inline;opacity:0.25;fill:#ffffff;fill-opacity:1;stroke-width:0.9375;enable-background:new"
           id="path3"
           cx="50.451084"
           cy="446.06714"
           rx="0.60021347"
           ry="0.97534692"
           transform="matrix(1.947755,5.1338718,-5.1338718,1.947755,2869.5206,-842.39201)" />
        <path
           style="display:inline;opacity:0.25;fill:#ffffff;fill-opacity:1;stroke:none;stroke-width:0.971222;stroke-opacity:1;enable-background:new"
           id="rect31"
           width="82.508873"
           height="4.424489"
           x="486.45389"
           y="792.98602"
           rx="0"
           ry="0"
           d="m 487.45852,792.98602 80.49961,0 a 1.0046348,1.0046348 45 0 1 1.00463,1.00464 v 2.41522 a 1.0046348,1.0046348 135 0 1 -1.00463,1.00463 h -80.49961 a 1.0046348,1.0046348 45 0 1 -1.00463,-1.00463 v -2.41522 a 1.0046348,1.0046348 135 0 1 1.00463,-1.00464 z"
           transform="translate(-3.4727372,0.60054434)" />
        <path
           style="display:inline;opacity:0.25;fill:#ffffff;fill-opacity:1;stroke:none;stroke-width:0.971222;stroke-opacity:1;enable-background:new"
           id="path31"
           width="34.057293"
           height="4.4244995"
           x="486.45389"
           y="792.98602"
           rx="0"
           ry="0"
           d="m 487.45852,792.98602 h 32.20857 a 0.84408798,0.84408798 45 0 1 0.84409,0.84409 v 2.57578 a 1.0046348,1.0046348 135 0 1 -1.00463,1.00463 h -32.04803 a 1.0046348,1.0046348 45 0 1 -1.00463,-1.00463 l 0,-2.41523 a 1.0046348,1.0046348 135 0 1 1.00463,-1.00464 z"
           transform="translate(-3.4723798,-64.399378)" />
      </g>
    </g>
    <g
       style="display:inline;opacity:1;enable-background:new"
       transform="matrix(-0.22893801,-0.3844242,-0.49141416,0.37593935,647.11261,248.80663)"
       id="g4756">
      <path
         style="color:#000000;clip-rule:nonzero;display:inline;overflow:visible;opacity:1;isolation:auto;mix-blend-mode:normal;color-interpolation:sRGB;color-interpolation-filters:linearRGB;solid-color:#000000;solid-opacity:1;fill:#e1d6b9;fill-opacity:1;fill-rule:nonzero;stroke:none;stroke-width:10;stroke-linecap:butt;stroke-linejoin:miter;stroke-miterlimit:4;stroke-dasharray:none;stroke-dashoffset:0;stroke-opacity:1;color-rendering:auto;image-rendering:auto;shape-rendering:auto;text-rendering:auto;enable-background:accumulate"
         d="m 423.50332,581.83521 c -0.004,4.40048 -1.19837,7.58856 -3.37524,9.82844 -2.17687,2.23987 -5.33154,3.55156 -9.14619,4.44292 -3.81465,0.89135 -8.28246,1.39523 -13.05675,1.83828 -4.77428,0.44304 -9.85163,0.79076 -14.95001,1.09928 -5.09838,0.30851 -9.94541,0.34741 -14.40217,0.0862 -4.45676,-0.26122 -8.52354,-0.79908 -11.99271,-1.71189 -3.46915,-0.91282 -6.33736,-2.21356 -8.3562,-4.09288 -2.01885,-1.87935 -3.18709,-4.34475 -3.25466,-7.51083 -0.0676,-3.16607 0.9983,-5.4859 2.92534,-7.0838 1.92703,-1.5979 4.71248,-2.46394 8.09977,-2.84688 3.38729,-0.38293 7.37282,-0.28336 11.77044,-0.16051 4.39762,0.12284 9.21051,0.23456 14.33166,-0.12202 5.12115,-0.35659 10.27171,-1.47349 15.16022,-2.54099 4.88852,-1.06749 9.50395,-2.05149 13.43823,-2.27114 3.9343,-0.21967 7.17754,0.32322 9.39823,2.04598 2.22069,1.72276 3.41425,4.59936 3.41004,8.99986 z"
         id="path4752" />
      <path
         style="color:#000000;clip-rule:nonzero;display:inline;overflow:visible;opacity:1;isolation:auto;mix-blend-mode:normal;color-interpolation:sRGB;color-interpolation-filters:linearRGB;solid-color:#000000;solid-opacity:1;fill:#394655;fill-opacity:1;fill-rule:nonzero;stroke:none;stroke-width:10;stroke-linecap:butt;stroke-linejoin:miter;stroke-miterlimit:4;stroke-dasharray:none;stroke-dashoffset:0;stroke-opacity:1;color-rendering:auto;image-rendering:auto;shape-rendering:auto;text-rendering:auto;enable-background:accumulate"
         d="m 411.91406,568.54883 c -3.75011,-0.0271 -8.08701,0.53975 -12.76172,1.28711 -5.34251,0.85413 -11.10706,1.92059 -17.00976,2.32617 -5.9027,0.40562 -11.41103,0.38326 -16.44727,0.41406 -5.03624,0.0309 -9.6045,0.1607 -13.50781,0.85938 -3.9033,0.69867 -7.13503,1.96743 -9.4082,3.96875 -2.27316,2.00131 -3.58535,4.71676 -3.65235,8.17578 -0.067,3.45901 1.21821,6.3073 3.54297,8.58008 2.32476,2.27278 5.68789,3.9795 9.76172,5.25 4.07385,1.27051 8.85237,2.11894 14.05664,2.59765 5.20427,0.47871 10.83381,0.56134 16.70313,0.22266 5.86931,-0.33868 11.47146,-0.78653 16.60547,-1.34961 5.13399,-0.56309 9.79334,-1.22365 13.70703,-2.34375 1.48913,-0.4262 2.86677,-0.9287 4.12695,-1.51953 2.54507,-1.19325 2.05015,-6.17249 -0.0996,-4.54102 -1.99172,1.51153 -4.55969,2.50355 -7.57031,3.20703 -3.66893,0.85731 -7.96668,1.34146 -12.5586,1.76758 -4.59191,0.42612 -9.47527,0.75991 -14.3789,1.05664 -4.90363,0.29673 -9.56506,0.33523 -13.85156,0.084 -4.28652,-0.25124 -8.19851,-0.76855 -11.53516,-1.64649 -3.33664,-0.87795 -6.09539,-2.12996 -8.03711,-3.9375 -1.94173,-1.80756 -3.06587,-4.17751 -3.13086,-7.22265 -0.065,-3.04513 0.96102,-5.2776 2.81445,-6.81446 1.85342,-1.53686 4.53117,-2.36997 7.78907,-2.73828 3.2579,-0.36831 7.09262,-0.27244 11.32226,-0.1543 4.22963,0.11816 8.85767,0.22578 13.7832,-0.11718 4.92553,-0.34297 9.88026,-1.41664 14.58204,-2.44336 4.70178,-1.02671 9.13982,-1.97234 12.92382,-2.1836 0.473,-0.0264 0.93707,-0.0422 1.38868,-0.0449 1.16046,-0.007 2.25007,0.0442 3.25,0.23633 1.15313,0.22156 2.31543,-2.86146 -0.83789,-2.92773 -0.51177,-0.0108 -1.03459,-0.045 -1.57032,-0.0488 z"
         id="path4754" />
    </g>
    <g
       id="g4634"
       transform="matrix(0.1493474,-0.42177,-0.60320928,-0.13768387,562.71805,653.67963)"
       style="display:inline;opacity:1;enable-background:new">
      <path
         id="path4636"
         d="m 423.50332,581.83521 c -0.004,4.40048 -1.19837,7.58856 -3.37524,9.82844 -2.17687,2.23987 -5.33154,3.55156 -9.14619,4.44292 -3.81465,0.89135 -8.28246,1.39523 -13.05675,1.83828 -4.77428,0.44304 -9.85163,0.79076 -14.95001,1.09928 -5.09838,0.30851 -9.94541,0.34741 -14.40217,0.0862 -4.45676,-0.26122 -8.52354,-0.79908 -11.99271,-1.71189 -3.46915,-0.91282 -6.33736,-2.21356 -8.3562,-4.09288 -2.01885,-1.87935 -3.18709,-4.34475 -3.25466,-7.51083 -0.0676,-3.16607 0.9983,-5.4859 2.92534,-7.0838 1.92703,-1.5979 4.71248,-2.46394 8.09977,-2.84688 3.38729,-0.38293 7.37282,-0.28336 11.77044,-0.16051 4.39762,0.12284 9.21051,0.23456 14.33166,-0.12202 5.12115,-0.35659 10.27171,-1.47349 15.16022,-2.54099 4.88852,-1.06749 9.50395,-2.05149 13.43823,-2.27114 3.9343,-0.21967 7.17754,0.32322 9.39823,2.04598 2.22069,1.72276 3.41425,4.59936 3.41004,8.99986 z"
         style="color:#000000;clip-rule:nonzero;display:inline;overflow:visible;opacity:1;isolation:auto;mix-blend-mode:normal;color-interpolation:sRGB;color-interpolation-filters:linearRGB;solid-color:#000000;solid-opacity:1;fill:#e1d6b9;fill-opacity:1;fill-rule:nonzero;stroke:none;stroke-width:10;stroke-linecap:butt;stroke-linejoin:miter;stroke-miterlimit:4;stroke-dasharray:none;stroke-dashoffset:0;stroke-opacity:1;color-rendering:auto;image-rendering:auto;shape-rendering:auto;text-rendering:auto;enable-background:accumulate" />
      <path
         id="path4638"
         d="m 411.91406,568.54883 c -3.75011,-0.0271 -8.08701,0.53975 -12.76172,1.28711 -5.34251,0.85413 -11.10706,1.92059 -17.00976,2.32617 -5.9027,0.40562 -11.41103,0.38326 -16.44727,0.41406 -5.03624,0.0309 -9.6045,0.1607 -13.50781,0.85938 -3.9033,0.69867 -7.13503,1.96743 -9.4082,3.96875 -2.27316,2.00131 -3.58535,4.71676 -3.65235,8.17578 -0.067,3.45901 1.21821,6.3073 3.54297,8.58008 2.32476,2.27278 5.68789,3.9795 9.76172,5.25 4.07385,1.27051 8.85237,2.11894 14.05664,2.59765 5.20427,0.47871 10.83381,0.56134 16.70313,0.22266 5.86931,-0.33868 11.47146,-0.78653 16.60547,-1.34961 5.13399,-0.56309 9.79334,-1.22365 13.70703,-2.34375 1.48913,-0.4262 2.86677,-0.9287 4.12695,-1.51953 2.54507,-1.19325 2.05015,-6.17249 -0.0996,-4.54102 -1.99172,1.51153 -4.14364,1.68162 -7.15735,2.35061 -3.67269,0.81527 -8.18136,0.99111 -12.55008,1.3428 -4.3687,0.35167 -8.7789,1.78431 -13.31332,2.07736 -4.53444,0.29304 -8.86787,0.32801 -12.93181,0.0702 -4.06396,-0.25785 -7.85651,-0.78075 -11.12475,-1.64296 -3.26823,-0.86221 -5.99695,-2.08037 -7.8846,-3.81399 -1.88765,-1.73365 -2.92537,-3.9871 -2.97865,-6.80086 -0.0533,-2.81374 0.90176,-4.8192 2.66881,-6.10562 1.76704,-1.28641 5.61732,-0.58475 8.69196,-0.71399 3.07463,-0.12925 6.90624,-0.54484 10.78772,-0.41733 3.88147,0.12754 6.54592,-0.48119 11.04844,-1.2139 4.50252,-0.73264 9.15212,-2.3434 13.88736,-3.72101 4.73523,-1.37761 9.22461,-2.34259 13.00861,-2.55385 0.473,-0.0264 0.93707,-0.0422 1.38868,-0.0449 1.16046,-0.007 2.25007,0.0442 3.25,0.23633 1.15313,0.22156 2.31543,-2.86146 -0.83789,-2.92773 -0.51177,-0.0108 -1.03459,-0.045 -1.57032,-0.0488 z"
         style="color:#000000;clip-rule:nonzero;display:inline;overflow:visible;opacity:1;isolation:auto;mix-blend-mode:normal;color-interpolation:sRGB;color-interpolation-filters:linearRGB;solid-color:#000000;solid-opacity:1;fill:#394655;fill-opacity:1;fill-rule:nonzero;stroke:none;stroke-width:10;stroke-linecap:butt;stroke-linejoin:miter;stroke-miterlimit:4;stroke-dasharray:none;stroke-dashoffset:0;stroke-opacity:1;color-rendering:auto;image-rendering:auto;shape-rendering:auto;text-rendering:auto;enable-background:accumulate" />
    </g>
  </g>
  <g
     id="layer9"
     style="display:inline;opacity:0.07"
     transform="translate(-279.63393,-263.42996)">
    <path
       style="display:inline;opacity:1;fill:#000000;fill-opacity:0.990712;stroke:none;stroke-width:2.5;stroke-linecap:round;stroke-miterlimit:4;stroke-dasharray:none;stroke-opacity:1;enable-background:new"
       d="m 229.28516,76.087891 c -5.45719,2.49801 -9.96099,7.107707 -10.44727,13.285156 -0.63786,6.233281 1.35144,12.793523 6.32422,16.839843 5.2664,4.24573 10.2967,8.75936 15.02539,13.60156 0.36346,1.07367 2.87549,0.99618 2.17383,2.28125 -2.73984,-0.30525 -4.96005,1.34042 -6.55274,3.43946 -13.52567,14.70125 -17.65116,35.53747 -17.77929,54.9375 0.30386,19.963 4.4664,39.62157 8.54687,59.08789 5.18659,22.99755 15.71824,44.84086 17.67383,68.49218 1.71406,23.89584 -8.21983,47.61765 -3.26758,71.48438 4.44612,19.65583 19.99757,35.775 38.57227,42.94922 19.60497,7.80169 40.64498,11.8253 61.67187,12.97851 25.16634,1.15691 50.68227,-2.34676 74.22656,-11.46093 28.44458,-11.06272 49.55413,-36.38894 60.12305,-64.50391 2.63596,-6.72192 4.56468,-13.61864 6.00195,-20.61914 -10.25951,21.39235 -23.85938,41.36921 -37.86914,49.6875 -20.22487,12.00851 -83.05575,33.4492 -117.3789,10.25195 -42.71363,-28.86794 -39.91074,-83.97013 -36.59375,-120.38476 3.15304,-34.61479 -30.22783,-57.45156 -36.5918,-90.33203 -3.36419,-17.38161 -4.89702,-41.74164 10.73302,-66.88643 1.91153,-3.07517 1.8411,-7.70722 -1.14317,-7.76592 -5.38413,-0.10591 -20.98778,0.98039 -26.56836,-5.82031 -2.46527,-3.00427 -8.48735,-8.902922 -10.51563,-18.574219 -0.77556,-3.698076 1.389,-10.283475 3.63477,-12.96875 z"
       id="path4773"
       transform="matrix(0.93749999,0,0,0.93749999,78.296503,206.26013)" />
  </g>
  <g
     id="layer2"
     style="display:inline"
     transform="translate(-279.63393,-263.42996)">
    <g
       transform="matrix(-0.56645474,-0.02502383,-0.02502383,0.56645474,617.99355,214.19531)"
       id="g4806">
      <path
         style="color:#000000;clip-rule:nonzero;display:inline;overflow:visible;opacity:1;isolation:auto;mix-blend-mode:normal;color-interpolation:sRGB;color-interpolation-filters:linearRGB;solid-color:#000000;solid-opacity:1;fill:#394655;fill-opacity:1;fill-rule:nonzero;stroke:none;stroke-width:2;stroke-linecap:butt;stroke-linejoin:miter;stroke-miterlimit:4;stroke-dasharray:none;stroke-dashoffset:0;stroke-opacity:1;color-rendering:auto;image-rendering:auto;shape-rendering:auto;text-rendering:auto;enable-background:accumulate"
         d="m 547.42756,318.16456 c -0.44046,14.77191 -4.12869,29.02667 -10.38967,42.25266 -6.26099,13.22599 -15.09198,25.42687 -25.80466,35.99686 -10.71268,10.57 -23.30432,19.50822 -37.11826,26.08983 -13.81394,6.58161 -28.85103,10.80263 -44.50193,11.8618 -15.65091,1.05917 -30.4406,-1.15844 -43.81781,-6.16756 -13.37721,-5.00911 -25.3405,-12.8075 -35.30087,-22.80416 -9.96037,-9.99666 -17.91599,-22.19037 -23.26581,-35.90798 -5.34983,-13.71761 -8.0915,-28.95913 -7.64195,-44.98105 0.44955,-16.02192 4.04447,-31.2937 10.1422,-45.07896 6.09773,-13.78526 14.69591,-26.08175 25.16951,-36.25747 10.4736,-10.17571 22.82245,-18.23043 36.46168,-23.66123 13.63924,-5.4308 28.57214,-8.24285 44.22923,-8.02541 15.6571,0.21745 30.56095,3.42714 44.11009,8.94154 13.54914,5.5144 25.7404,13.33722 35.92568,22.91495 10.18529,9.57774 18.36233,20.91345 23.87736,33.53282 5.51504,12.61936 8.36566,26.52144 7.92521,41.29336 z"
         id="path4798" />
      <path
         style="color:#000000;clip-rule:nonzero;display:inline;overflow:visible;opacity:1;isolation:auto;mix-blend-mode:normal;color-interpolation:sRGB;color-interpolation-filters:linearRGB;solid-color:#000000;solid-opacity:1;fill:#ffffff;fill-opacity:1;fill-rule:nonzero;stroke:none;stroke-width:2;stroke-linecap:butt;stroke-linejoin:miter;stroke-miterlimit:4;stroke-dasharray:none;stroke-dashoffset:0;stroke-opacity:1;color-rendering:auto;image-rendering:auto;shape-rendering:auto;text-rendering:auto;enable-background:accumulate"
         d="m 539.72249,314.79002 c 10e-4,13.89984 -3.01572,27.53808 -8.51346,40.35257 -5.49774,12.81449 -13.48047,24.80543 -23.37659,35.2527 -9.89612,10.44726 -21.70519,19.34133 -34.78531,25.87862 -13.08011,6.53727 -27.4256,10.71236 -42.3773,11.7667 -14.9517,1.05435 -29.09103,-1.11258 -41.85904,-5.93108 -12.76803,-4.81852 -24.16883,-12.28715 -33.66552,-21.79076 -9.49671,-9.50362 -17.08979,-21.04298 -22.23241,-33.95465 -5.14261,-12.91166 -7.83328,-27.19561 -7.52333,-42.13595 0.30995,-14.94034 3.58995,-29.10832 9.22975,-41.85842 5.63981,-12.7501 13.63743,-24.08168 23.39638,-33.47108 9.75897,-9.38941 21.27795,-16.83842 34.00359,-21.94183 12.72563,-5.10342 26.66067,-7.86812 41.28534,-7.94317 14.62467,-0.0751 28.55938,2.53224 41.26083,7.24431 12.70145,4.71207 24.16709,11.5339 33.81555,20.03646 9.64847,8.50257 17.47884,18.68937 22.90117,30.21241 5.42232,11.52304 8.43889,24.38332 8.44035,38.28317 z"
         id="path4800" />
      <circle
         r="30.809652"
         cy="310.03793"
         cx="461.30508"
         id="circle4802"
         style="color:#000000;clip-rule:nonzero;display:inline;overflow:visible;opacity:1;isolation:auto;mix-blend-mode:normal;color-interpolation:sRGB;color-interpolation-filters:linearRGB;solid-color:#000000;solid-opacity:1;fill:#394455;fill-opacity:1;fill-rule:nonzero;stroke:none;stroke-width:2;stroke-linecap:butt;stroke-linejoin:miter;stroke-miterlimit:4;stroke-dasharray:none;stroke-dashoffset:0;stroke-opacity:1;color-rendering:auto;image-rendering:auto;shape-rendering:auto;text-rendering:auto;enable-background:accumulate" />
      <circle
         style="color:#000000;clip-rule:nonzero;display:inline;overflow:visible;opacity:1;isolation:auto;mix-blend-mode:normal;color-interpolation:sRGB;color-interpolation-filters:linearRGB;solid-color:#000000;solid-opacity:1;fill:#ffffff;fill-opacity:1;fill-rule:nonzero;stroke:none;stroke-width:2;stroke-linecap:butt;stroke-linejoin:miter;stroke-miterlimit:4;stroke-dasharray:none;stroke-dashoffset:0;stroke-opacity:1;color-rendering:auto;image-rendering:auto;shape-rendering:auto;text-rendering:auto;enable-background:accumulate"
         id="circle4804"
         cx="447.66803"
         cy="295.89578"
         r="15.152287" />
    </g>
    <g
       id="g4819"
       transform="matrix(-0.48052224,-0.02122766,-0.02122766,0.48052224,731.82894,229.14056)">
      <path
         id="path4810"
         d="m 535.82301,313.0445 c -0.29025,14.75204 -2.81803,29.20469 -7.03792,42.80901 -4.2199,13.60432 -10.14025,26.36399 -17.69016,37.56196 -7.5499,11.19799 -16.76164,20.82732 -27.69479,28.027 -10.93315,7.19969 -23.60031,11.96183 -37.82567,13.40877 -14.22537,1.44693 -28.65521,-0.56908 -42.40614,-5.4964 -13.75093,-4.92731 -26.81465,-12.76128 -38.20567,-22.84327 -11.39102,-10.08199 -21.10215,-22.41033 -28.14752,-36.26027 -7.04537,-13.84994 -11.41525,-29.22086 -12.25572,-45.34133 -0.84047,-16.12047 1.9285,-31.45049 7.56672,-45.27108 5.63821,-13.82059 14.13536,-26.13027 24.64197,-36.33631 10.50661,-10.20604 23.01903,-18.30878 36.67929,-23.85785 13.66026,-5.54907 28.46581,-8.55183 43.58915,-8.64451 15.12334,-0.0927 29.12733,2.7155 41.48001,7.77838 12.35267,5.06288 23.05325,12.38605 31.70358,21.4893 8.65035,9.10325 15.24673,19.99017 19.55701,32.2709 4.31028,12.28073 6.3361,25.95366 6.04586,40.7057 z"
         style="color:#000000;clip-rule:nonzero;display:inline;overflow:visible;opacity:1;isolation:auto;mix-blend-mode:normal;color-interpolation:sRGB;color-interpolation-filters:linearRGB;solid-color:#000000;solid-opacity:1;fill:#394655;fill-opacity:1;fill-rule:nonzero;stroke:none;stroke-width:2;stroke-linecap:butt;stroke-linejoin:miter;stroke-miterlimit:4;stroke-dasharray:none;stroke-dashoffset:0;stroke-opacity:1;color-rendering:auto;image-rendering:auto;shape-rendering:auto;text-rendering:auto;enable-background:accumulate" />
      <path
         id="path4813"
         d="m 528.74609,309.74609 c 0.11125,13.85917 -1.87653,27.66057 -5.4968,40.81809 -3.62026,13.15753 -8.88383,25.67162 -15.77596,36.71905 -6.89213,11.04743 -15.44705,20.61238 -25.71702,27.75789 -10.26996,7.14549 -22.26301,11.8621 -35.75133,13.31515 -13.48831,1.45306 -27.17904,-0.49196 -40.20978,-5.20553 -13.03076,-4.7136 -25.39851,-12.19198 -36.19695,-21.75781 -10.79846,-9.56584 -20.02332,-21.21949 -26.76491,-34.24909 -6.74158,-13.0296 -10.99078,-27.43445 -11.9411,-42.47175 -0.95032,-15.0373 1.49024,-29.26893 6.61946,-42.06533 5.12922,-12.7964 12.93676,-24.15786 22.61902,-33.59729 9.68227,-9.43943 21.23431,-16.95936 33.86406,-22.20008 12.62975,-5.24073 26.33534,-8.21089 40.38417,-8.59617 14.04884,-0.38532 27.1089,1.8359 38.69817,6.12253 11.58928,4.28662 21.70646,10.64489 29.97329,18.70518 8.26685,8.06029 14.67909,17.82588 19.00751,29.02227 4.3284,11.19638 6.5765,23.82371 6.68817,37.68289 z"
         style="color:#000000;clip-rule:nonzero;display:inline;overflow:visible;opacity:1;isolation:auto;mix-blend-mode:normal;color-interpolation:sRGB;color-interpolation-filters:linearRGB;solid-color:#000000;solid-opacity:1;fill:#ffffff;fill-opacity:1;fill-rule:nonzero;stroke:none;stroke-width:2;stroke-linecap:butt;stroke-linejoin:miter;stroke-miterlimit:4;stroke-dasharray:none;stroke-dashoffset:0;stroke-opacity:1;color-rendering:auto;image-rendering:auto;shape-rendering:auto;text-rendering:auto;enable-background:accumulate" />
      <circle
         style="color:#000000;clip-rule:nonzero;display:inline;overflow:visible;opacity:1;isolation:auto;mix-blend-mode:normal;color-interpolation:sRGB;color-interpolation-filters:linearRGB;solid-color:#000000;solid-opacity:1;fill:#394455;fill-opacity:1;fill-rule:nonzero;stroke:none;stroke-width:2;stroke-linecap:butt;stroke-linejoin:miter;stroke-miterlimit:4;stroke-dasharray:none;stroke-dashoffset:0;stroke-opacity:1;color-rendering:auto;image-rendering:auto;shape-rendering:auto;text-rendering:auto;enable-background:accumulate"
         id="circle4815"
         cx="394.80054"
         cy="314.25299"
         r="30.809652" />
      <circle
         r="15.152287"
         cy="300.11084"
         cx="381.16348"
         id="circle4817"
         style="color:#000000;clip-rule:nonzero;display:inline;overflow:visible;opacity:1;isolation:auto;mix-blend-mode:normal;color-interpolation:sRGB;color-interpolation-filters:linearRGB;solid-color:#000000;solid-opacity:1;fill:#ffffff;fill-opacity:1;fill-rule:nonzero;stroke:none;stroke-width:2;stroke-linecap:butt;stroke-linejoin:miter;stroke-miterlimit:4;stroke-dasharray:none;stroke-dashoffset:0;stroke-opacity:1;color-rendering:auto;image-rendering:auto;shape-rendering:auto;text-rendering:auto;enable-background:accumulate" />
    </g>
  </g>
  <g
     id="layer7"
     style="display:inline"
     transform="translate(-279.63393,-263.42996)">
    <g
       id="g4794"
       transform="matrix(-0.99902566,-0.04413318,-0.04413318,0.99902566,1268.1724,-12.165296)">
      <path
         style="color:#000000;clip-rule:nonzero;display:inline;overflow:visible;opacity:1;isolation:auto;mix-blend-mode:normal;color-interpolation:sRGB;color-interpolation-filters:linearRGB;solid-color:#000000;solid-opacity:1;fill:#2e3436;fill-opacity:1;fill-rule:nonzero;stroke:none;stroke-width:10;stroke-linecap:butt;stroke-linejoin:miter;stroke-miterlimit:4;stroke-dasharray:none;stroke-dashoffset:0;stroke-opacity:1;color-rendering:auto;image-rendering:auto;shape-rendering:auto;text-rendering:auto;enable-background:accumulate"
         d="m 781.20683,487.6874 6.35568,0.0828 3.72298,-0.0821 c 1.1875,-0.0262 2.16091,0.53559 2.80984,1.36379 0.64894,0.82822 0.86157,1.97521 0.85989,3.22687 l -0.009,7.08562 0.38105,7.111 c 0.0686,1.28069 -0.4318,2.40965 -1.17144,3.23132 -0.73966,0.82165 -1.75974,1.28978 -2.8867,1.31649 l -3.75746,0.0891 -7.38167,-0.17258 c -1.41577,-0.0331 -2.6557,-0.58514 -3.50108,-1.43299 -0.84536,-0.84787 -1.25133,-2.00084 -1.18525,-3.2592 l 0.37057,-7.05621 0.49133,-7.04505 c 0.0874,-1.25398 0.80978,-2.37726 1.71275,-3.18163 0.90295,-0.80437 2.04268,-1.2842 3.18885,-1.27716 z"
         id="path4779" />
      <path
         style="color:#000000;clip-rule:nonzero;display:inline;overflow:visible;opacity:1;isolation:auto;mix-blend-mode:normal;color-interpolation:sRGB;color-interpolation-filters:linearRGB;solid-color:#000000;solid-opacity:1;fill:#ffffff;fill-opacity:1;fill-rule:nonzero;stroke:none;stroke-width:10;stroke-linecap:butt;stroke-linejoin:miter;stroke-miterlimit:4;stroke-dasharray:none;stroke-dashoffset:0;stroke-opacity:1;color-rendering:auto;image-rendering:auto;shape-rendering:auto;text-rendering:auto;enable-background:accumulate"
         d="m 782.05991,489.83232 5.18676,0.0698 2.48962,-0.10149 c 0.94575,-0.0386 1.74536,0.43586 2.30052,1.11384 0.55515,0.67797 0.80081,1.61771 0.83033,2.64338 l 0.16667,5.79325 0.41684,5.80832 c 0.0744,1.03701 -0.28634,1.97056 -0.87055,2.64162 -0.58466,0.67105 -1.41574,1.03411 -2.35348,1.07115 l -2.5565,0.101 -5.86707,-0.12754 c -1.11098,-0.0242 -2.10705,-0.47212 -2.80521,-1.1643 -0.69815,-0.69218 -1.07313,-1.6349 -1.05483,-2.66511 l 0.10249,-5.77006 0.20124,-5.76301 c 0.0355,-1.02637 0.56658,-1.94744 1.26784,-2.6062 0.70124,-0.65877 1.60914,-1.05733 2.54532,-1.04471 z"
         id="path4781" />
      <path
         style="color:#000000;clip-rule:nonzero;display:inline;overflow:visible;opacity:1;isolation:auto;mix-blend-mode:normal;color-interpolation:sRGB;color-interpolation-filters:linearRGB;solid-color:#000000;solid-opacity:1;fill:#394655;fill-opacity:1;fill-rule:nonzero;stroke:none;stroke-width:10;stroke-linecap:butt;stroke-linejoin:miter;stroke-miterlimit:4;stroke-dasharray:none;stroke-dashoffset:0;stroke-opacity:1;color-rendering:auto;image-rendering:auto;shape-rendering:auto;text-rendering:auto;enable-background:accumulate"
         d="m 814.65155,484.75214 c -0.17729,2.27145 -1.57656,4.32647 -3.56538,6.17684 -1.98881,1.85037 -4.73553,3.49055 -7.9169,4.83408 -3.18137,1.34353 -6.76993,2.37673 -10.40491,2.92876 -3.63499,0.55204 -7.31771,0.61337 -10.93742,0.17695 -3.61969,-0.43645 -6.8614,-1.30517 -9.67542,-2.37849 -2.81402,-1.07332 -5.17844,-2.3467 -7.04073,-3.75925 -1.86231,-1.41254 -3.23922,-2.97722 -4.10853,-4.72358 -0.86932,-1.74636 -1.22997,-3.67959 -0.91461,-5.76285 0.31535,-2.08326 1.29186,-4.11481 2.79935,-5.98131 1.5075,-1.86649 3.53491,-3.56576 5.91642,-4.97983 2.3815,-1.41407 5.11304,-2.54212 8.12844,-3.28158 3.0154,-0.73946 6.31783,-1.09096 9.93094,-0.97174 3.6131,0.11924 7.2186,0.69446 10.6419,1.64517 3.4233,0.95069 6.6496,2.2832 9.33875,3.91065 2.68913,1.62746 4.89892,3.50256 6.18894,5.61926 1.32139,2.16817 1.77021,4.61153 1.61916,6.54692 z"
         id="path4783" />
      <path
         style="color:#000000;clip-rule:nonzero;display:inline;overflow:visible;opacity:1;isolation:auto;mix-blend-mode:normal;color-interpolation:sRGB;color-interpolation-filters:linearRGB;solid-color:#000000;solid-opacity:1;fill:#e1d0cb;fill-opacity:1;fill-rule:nonzero;stroke:none;stroke-width:10;stroke-linecap:butt;stroke-linejoin:miter;stroke-miterlimit:4;stroke-dasharray:none;stroke-dashoffset:0;stroke-opacity:1;color-rendering:auto;image-rendering:auto;shape-rendering:auto;text-rendering:auto;enable-background:accumulate"
         d="m 807.00222,484.24209 c -0.31019,1.80429 -1.36577,3.48937 -2.98663,4.99917 -1.62086,1.5098 -3.80505,2.84719 -6.28703,3.91437 -2.48197,1.06719 -5.24944,1.8562 -8.07117,2.27071 -2.82174,0.4145 -5.70079,0.45265 -8.53169,0.10713 -2.83089,-0.34553 -5.35911,-1.02976 -7.553,-1.90451 -2.19389,-0.87475 -4.04484,-1.93848 -5.497,-3.12538 -1.45217,-1.1869 -2.50911,-2.50179 -3.13219,-3.93394 -0.62308,-1.43214 -0.81446,-2.98543 -0.48985,-4.63056 0.32461,-1.64514 1.13916,-3.22548 2.3414,-4.6674 1.20224,-1.44192 2.78948,-2.74346 4.65903,-3.82078 1.86955,-1.07733 4.01937,-1.92982 6.38974,-2.4811 2.37037,-0.55129 4.96168,-0.80162 7.76722,-0.68542 2.80553,0.11621 5.57317,0.58631 8.1874,1.34158 2.61424,0.75528 5.07126,1.79757 7.14628,3.06167 2.07504,1.26412 3.75959,2.75051 4.8326,4.37276 1.07302,1.62225 1.53509,3.37741 1.22489,5.1817 z"
         id="path4785" />
      <path
         style="color:#000000;clip-rule:nonzero;display:inline;overflow:visible;opacity:1;isolation:auto;mix-blend-mode:normal;color-interpolation:sRGB;color-interpolation-filters:linearRGB;solid-color:#000000;solid-opacity:1;fill:#394655;fill-opacity:1;fill-rule:nonzero;stroke:none;stroke-width:10;stroke-linecap:butt;stroke-linejoin:miter;stroke-miterlimit:4;stroke-dasharray:none;stroke-dashoffset:0;stroke-opacity:1;color-rendering:auto;image-rendering:auto;shape-rendering:auto;text-rendering:auto;enable-background:accumulate"
         d="m 800.72813,472.61614 c -0.45232,1.29294 -1.43586,2.44115 -2.79664,3.4102 -1.36078,0.96906 -3.0934,1.76079 -4.97332,2.36791 -1.87992,0.60712 -3.89927,1.0315 -5.87533,1.25741 -1.97606,0.2259 -3.90879,0.25223 -5.71982,0.052 -1.81102,-0.20028 -3.33955,-0.60742 -4.63321,-1.17435 -1.29367,-0.56695 -2.35232,-1.29343 -3.18646,-2.14861 -0.83413,-0.85519 -1.44471,-1.8405 -1.79916,-2.93195 -0.35445,-1.09146 -0.45213,-2.29028 -0.21175,-3.55738 0.24038,-1.2671 0.80099,-2.48156 1.64917,-3.57911 0.84818,-1.09755 1.9831,-2.07741 3.35494,-2.8723 1.37184,-0.7949 2.98056,-1.40441 4.76729,-1.7664 1.78672,-0.36199 3.75169,-0.47615 5.82322,-0.29097 2.07153,0.18518 4.05358,0.65136 5.84566,1.3298 1.79207,0.67844 3.39432,1.56902 4.69144,2.60198 1.29713,1.03296 2.28898,2.20893 2.84443,3.45293 0.55546,1.24399 0.67186,2.55593 0.21954,3.84888 z"
         id="path4787" />
    </g>
  </g>
  <g
     id="layer8"
     style="opacity:0.07"
     transform="translate(-201.33742,-57.169819)">
    <path
       style="opacity:1;fill:#000000;fill-opacity:0.990712;stroke:none;stroke-width:1.76777;stroke-linecap:round;stroke-miterlimit:4;stroke-dasharray:none;stroke-opacity:1"
       d="m 294.47656,129.56641 c -18.11655,2.61472 -35.49889,12.29417 -45.30664,27.97265 -8.19931,12.90574 -10.27647,29.15664 -6.58984,43.90039 7.48017,29.89258 35.61736,53.72412 66.59961,54.89453 17.50485,0.75252 34.95287,-7.09248 46.33789,-20.32031 -45.00865,16.67536 -80.10601,2.94019 -93.18164,-33.41406 -12.11541,-33.68453 4.84612,-59.79137 32.14062,-73.0332 z"
       transform="scale(0.93749999)"
       id="path4799" />
    <path
       style="opacity:1;fill:#000000;fill-opacity:0.990712;stroke:none;stroke-width:1.76777;stroke-linecap:round;stroke-miterlimit:4;stroke-dasharray:none;stroke-opacity:1"
       d="m 445.27148,130.00195 c -6.91892,2.99532 -13.08295,7.63862 -17.5,13.85547 -6.71266,9.11048 -9.32341,20.64884 -8.94921,31.83008 -0.105,14.01826 3.99961,28.10618 11.65429,39.85352 7.97292,12.61512 23.11752,20.53783 38.07422,18.92382 8.05853,-0.54698 15.83133,-3.21135 22.74414,-7.34375 5.85201,-3.37971 11.11435,-7.82283 15.51953,-12.99804 -10.40108,4.07271 -21.954,6.64722 -32.69922,4.73828 -19.99295,-3.55185 -32.54753,-14.01161 -41.71875,-37.12305 -5.9887,-15.09151 -0.44455,-36.18096 12.875,-51.73633 z"
       transform="scale(0.93749999)"
       id="path4801" />
  </g>
  <g
     id="layer12"
     style="display:inline"
     transform="translate(-279.63393,-263.42996)">
    <g
       id="g4764"
       transform="matrix(-0.34937987,0.27951437,0.43980419,0.43519024,419.39349,95.667354)">
      <path
         id="path4760"
         d="m 423.50332,581.83521 c -0.004,4.40048 -1.19837,7.58856 -3.37524,9.82844 -2.17687,2.23987 -5.33154,3.55156 -9.14619,4.44292 -3.81465,0.89135 -8.28246,1.39523 -13.05675,1.83828 -4.77428,0.44304 -9.85163,0.79076 -14.95001,1.09928 -5.09838,0.30851 -9.94541,0.34741 -14.40217,0.0862 -4.45676,-0.26122 -8.52354,-0.79908 -11.99271,-1.71189 -3.46915,-0.91282 -6.33736,-2.21356 -8.3562,-4.09288 -2.01885,-1.87935 -3.18709,-4.34475 -3.25466,-7.51083 -0.0676,-3.16607 0.9983,-5.4859 2.92534,-7.0838 1.92703,-1.5979 4.71248,-2.46394 8.09977,-2.84688 3.38729,-0.38293 7.37282,-0.28336 11.77044,-0.16051 4.39762,0.12284 9.21051,0.23456 14.33166,-0.12202 5.12115,-0.35659 10.27171,-1.47349 15.16022,-2.54099 4.88852,-1.06749 9.50395,-2.05149 13.43823,-2.27114 3.9343,-0.21967 7.17754,0.32322 9.39823,2.04598 2.22069,1.72276 3.41425,4.59936 3.41004,8.99986 z"
         style="color:#000000;clip-rule:nonzero;display:inline;overflow:visible;opacity:1;isolation:auto;mix-blend-mode:normal;color-interpolation:sRGB;color-interpolation-filters:linearRGB;solid-color:#000000;solid-opacity:1;fill:#e1d6b9;fill-opacity:1;fill-rule:nonzero;stroke:none;stroke-width:10;stroke-linecap:butt;stroke-linejoin:miter;stroke-miterlimit:4;stroke-dasharray:none;stroke-dashoffset:0;stroke-opacity:1;color-rendering:auto;image-rendering:auto;shape-rendering:auto;text-rendering:auto;enable-background:accumulate" />
      <path
         id="path4762"
         d="m 411.91406,568.54883 c -3.75011,-0.0271 -8.08701,0.53975 -12.76172,1.28711 -5.34251,0.85413 -11.10706,1.92059 -17.00976,2.32617 -5.9027,0.40562 -11.41103,0.38326 -16.44727,0.41406 -5.03624,0.0309 -9.6045,0.1607 -13.50781,0.85938 -3.9033,0.69867 -7.13503,1.96743 -9.4082,3.96875 -2.27316,2.00131 -3.58535,4.71676 -3.65235,8.17578 -0.067,3.45901 1.21821,6.3073 3.54297,8.58008 2.32476,2.27278 5.68789,3.9795 9.76172,5.25 4.07385,1.27051 8.85237,2.11894 14.05664,2.59765 5.20427,0.47871 10.83381,0.56134 16.70313,0.22266 5.86931,-0.33868 11.47146,-0.78653 16.60547,-1.34961 5.13399,-0.56309 9.79334,-1.22365 13.70703,-2.34375 1.48913,-0.4262 2.86677,-0.9287 4.12695,-1.51953 2.54507,-1.19325 2.05015,-6.17249 -0.0996,-4.54102 -1.99172,1.51153 -4.55969,2.50355 -7.57031,3.20703 -3.66893,0.85731 -7.96668,1.34146 -12.5586,1.76758 -4.59191,0.42612 -9.47527,0.75991 -14.3789,1.05664 -4.90363,0.29673 -9.56506,0.33523 -13.85156,0.084 -4.28652,-0.25124 -8.19851,-0.76855 -11.53516,-1.64649 -3.33664,-0.87795 -6.09539,-2.12996 -8.03711,-3.9375 -1.94173,-1.80756 -3.06587,-4.17751 -3.13086,-7.22265 -0.065,-3.04513 0.96102,-5.2776 2.81445,-6.81446 1.85342,-1.53686 4.53117,-2.36997 7.78907,-2.73828 3.2579,-0.36831 7.09262,-0.27244 11.32226,-0.1543 4.22963,0.11816 8.85767,0.22578 13.7832,-0.11718 4.92553,-0.34297 9.88026,-1.41664 14.58204,-2.44336 4.70178,-1.02671 9.13982,-1.97234 12.92382,-2.1836 0.473,-0.0264 0.93707,-0.0422 1.38868,-0.0449 1.16046,-0.007 2.25007,0.0442 3.25,0.23633 1.15313,0.22156 2.31543,-2.86146 -0.83789,-2.92773 -0.51177,-0.0108 -1.03459,-0.045 -1.57032,-0.0488 z"
         style="color:#000000;clip-rule:nonzero;display:inline;overflow:visible;opacity:1;isolation:auto;mix-blend-mode:normal;color-interpolation:sRGB;color-interpolation-filters:linearRGB;solid-color:#000000;solid-opacity:1;fill:#394655;fill-opacity:1;fill-rule:nonzero;stroke:none;stroke-width:10;stroke-linecap:butt;stroke-linejoin:miter;stroke-miterlimit:4;stroke-dasharray:none;stroke-dashoffset:0;stroke-opacity:1;color-rendering:auto;image-rendering:auto;shape-rendering:auto;text-rendering:auto;enable-background:accumulate" />
    </g>
  </g>
  <g
     id="layer6-8"
     style="display:inline;enable-background:new"
     transform="matrix(0.20931368,0,0,0.20931368,90.623117,10.454828)">
    <path
       id="path44"
       style="display:inline;opacity:1;fill:#999999;stroke-width:5"
       d="M 1110,210 A 200,200 0 0 0 910,410 v 100 h 75 V 410 a 125,125 0 0 1 125,-125 125,125 0 0 1 125,125 v 100 h 75 V 410 A 200,200 0 0 0 1110,210 Z" />
    <rect
       style="display:inline;opacity:1;fill:#daa520;fill-opacity:1;stroke-width:5"
       id="rect43"
       width="500"
       height="350"
       x="860"
       y="510"
       rx="25"
       ry="25" />
    <path
       id="path10"
       style="display:inline;opacity:0.7;fill:#000000;stroke-width:5"
       d="m 1110,600 a 50,50 0 0 0 -50,50 50,50 0 0 0 20,40 l -14.7461,80 a 12.5,12.5 0 0 0 -0.254,2.5 12.5,12.5 0 0 0 12.5,12.5 h 65 a 12.5,12.5 0 0 0 12.5,-12.5 12.5,12.5 0 0 0 -0.254,-2.5 L 1140,690 a 50,50 0 0 0 20,-40 50,50 0 0 0 -50,-50 z" />
    <path
       id="path71"
       style="display:inline;opacity:1;fill:#f6c13c;fill-opacity:1;stroke-width:5"
       d="m 1140,690 -10,2 14.9492,80 a 2.5,2.5 0 0 1 0.051,0.5 2.5,2.5 0 0 1 -2.5,2.5 h -65 a 2.5,2.5 0 0 1 -2.5,-2.5 2.5,2.5 0 0 1 0.051,-0.5 L 1090,692 l -10,-2 -14.7461,80 a 12.5,12.5 0 0 0 -0.2539,2.5 12.5,12.5 0 0 0 12.5,12.5 h 65 a 12.5,12.5 0 0 0 12.5,-12.5 12.5,12.5 0 0 0 -0.2539,-2.5 z m -30,-90 a 50,50 0 0 0 -50,50 50,50 0 0 0 29.3418,45.5332 l 1.9004,-10.20312 A 40,40 0 0 1 1070,650 a 40,40 0 0 1 40,-40 40,40 0 0 1 40,40 40,40 0 0 1 -21.2422,35.33008 l 1.9004,10.20312 A 50,50 0 0 0 1160,650 50,50 0 0 0 1110,600 Z" />
    <path
       d="m 1110,600 c -40,0 -40,50 -40,50 0,-22.09139 17.9086,-40 40,-40 22.0914,0 40,17.90861 40,40 4e-4,14.79956 -8.1708,28.3899 -21.2422,35.33008 L 1130,692 l 0.037,0.20312 0.6211,3.33008 14.2911,76.4668 c 0.034,0.16453 0.051,0.33204 0.051,0.5 0,1.38071 -1.1193,2.5 -2.5,2.5 0,0 12.4998,9 12.4998,-2.5 -4e-4,-0.83975 -0.085,-1.67731 -0.2539,-2.5 L 1140,690 c 12.5903,-9.44272 20,-24.26213 20,-40 0,-27.61424 -22.3858,-50 -50,-50 z"
       style="display:inline;opacity:0.25;stroke-width:5"
       id="path76" />
    <path
       d="m 1120,230 c -15,0 -14.9256,28.50744 0,30 50,5 85,30 120,65 7.4536,7.45359 13.6023,-0.0937 10,-10 -20,-55 -84.7231,-85 -130,-85 z"
       style="display:none;opacity:0.25;fill:#ffffff;stroke-width:5"
       id="path86" />
    <path
       d="m 1357.2289,846.47877 c -3.4346,1.77057 -7.3325,2.77308 -11.4772,2.77308 H 895.75111 c -13.85,0 -25.00149,-11.15149 -25.00149,-25.00149 V 524.24997 c 0,-4.14423 0.99411,-8.04288 2.76433,-11.47725 -8.04269,4.14606 -13.5155,12.52307 -13.5155,22.22841 v 300.0004 c 0,13.85 11.15149,25.00149 25.00149,25.00149 h 450.00056 c 9.7058,0 18.0826,-5.48098 22.2284,-13.52425 z"
       style="display:inline;opacity:0.1;stroke-width:5"
       id="path46" />
    <g
       id="g55">
      <path
         d="m 1261.8769,509.99964 v -99.99721 a 125,125 0 0 0 -125.0075,-124.99871 125,125 0 0 0 -13.428,0.71733 125,125 0 0 1 111.5619,124.28138 v 99.99721 z"
         style="display:inline;opacity:0.1;fill:#000000;stroke-width:5"
         id="path54" />
      <path
         d="M 1109.9959,209.99925 A 200,200 0 0 0 910.00143,410.00243 v 99.99721 h 26.87354 v -99.99721 a 200,200 0 0 1 186.54013,-199.54829 200,200 0 0 0 -13.4192,-0.45489 z"
         style="display:inline;opacity:0.1;fill:#000000;stroke-width:5"
         id="path51" />
    </g>
    <path
       d="m 1120,230 c -15,0 -14.9256,28.50744 0,30 50,5 83.4646,14.75324 118.4646,49.75324 7.4536,7.45359 14.6762,0.87197 9.5914,-8.36144 C 1224.8159,259.1908 1165.2769,230 1120,230 Z"
       style="display:inline;opacity:0.25;fill:#ffffff;stroke-width:5"
       id="path55" />
  </g>
</svg>
